PathFileType	4	(X/Y/Z)	C:\Git\research_data\Projects\torsion_deformities_healthy_kinematics\simulations\TD01\pre\static_01\marker_experimental.trc
DataRate	CameraRate	NumFrames	NumMarkers	Units	OrigDataRate	OrigDataStartFrame	OrigNumFrames
200	200	7	38	mm	200	1	200
Frame#	Time	C7			T10			CLAV			STRN			RBAK			LASI			RASI			SACR			RT1			RT2			RT3			RKNE			RS1			RS2			RS3			RANK			RHEE			RTOE			LT1			LT2			LT3			LKNE			LS1			LS2			LS3			LANK			LHEE			LTOE			LANM			RANM			RKNM			LKNM			RHJC			LHJC			LKJC			LAJC			RKJC			RAJC		
		X1	Y1	Z1	X2	Y2	Z2	X3	Y3	Z3	X4	Y4	Z4	X5	Y5	Z5	X6	Y6	Z6	X7	Y7	Z7	X8	Y8	Z8	X9	Y9	Z9	X10	Y10	Z10	X11	Y11	Z11	X12	Y12	Z12	X13	Y13	Z13	X14	Y14	Z14	X15	Y15	Z15	X16	Y16	Z16	X17	Y17	Z17	X18	Y18	Z18	X19	Y19	Z19	X20	Y20	Z20	X21	Y21	Z21	X22	Y22	Z22	X23	Y23	Z23	X24	Y24	Z24	X25	Y25	Z25	X26	Y26	Z26	X27	Y27	Z27	X28	Y28	Z28	X29	Y29	Z29	X30	Y30	Z30	X31	Y31	Z31	X32	Y32	Z32	X33	Y33	Z33	X34	Y34	Z34	X35	Y35	Z35	X36	Y36	Z36	X37	Y37	Z37	X38	Y38	Z38	

1	0.000000	609.796875	1224.452026	305.317169	607.490234	1033.653198	300.085358	623.464355	1226.607788	171.744995	623.473755	1104.786865	99.760544	701.926453	1156.635498	325.189209	516.772034	850.127869	129.639862	720.152649	859.386414	145.442139	606.837219	883.003418	300.247040	792.091858	662.392456	196.027740	804.200012	611.605957	237.881027	794.551758	596.514526	188.170151	816.035278	470.668610	226.041321	858.313477	359.013702	294.617798	859.368835	294.630524	311.919861	877.217651	302.169861	265.197723	895.166687	94.525597	285.639648	834.845520	74.335190	313.342194	920.392761	65.805191	144.447540	439.217773	663.800049	200.930954	431.381866	605.438782	232.409042	439.584930	600.275818	181.534622	412.216095	460.601074	227.883331	369.246918	341.387634	299.769989	361.505096	276.978424	311.817444	350.636505	288.899658	263.369873	336.477783	96.633766	309.034821	386.697327	76.809425	326.822266	285.201233	64.360558	164.753983	401.882568	92.061440	250.370056	817.326477	103.459641	239.524307	712.860901	431.490692	217.792007	525.569397	421.022064	223.009659	690.941129	795.546081	204.545242	542.168763	788.773481	192.985919	468.892746	440.811569	225.446495	369.180176	94.347603	279.702438	764.448090	451.079651	221.916664	856.246582	98.992619	262.581978	
2	0.005000	609.842712	1224.431396	305.372650	607.522888	1033.653442	300.148956	623.514465	1226.655151	171.780411	623.520447	1104.882080	99.723534	702.014832	1156.652100	325.207306	516.762695	850.186096	129.656342	720.176147	859.414307	145.417526	606.876160	882.964783	300.274414	792.127563	662.400513	195.975815	804.227173	611.616577	237.831833	794.573547	596.523926	188.116943	816.040710	470.667786	226.000565	858.317749	359.010284	294.592560	859.387268	294.628510	311.878204	877.231567	302.182739	265.154633	895.171631	94.523674	285.632355	834.846375	74.328026	313.340240	920.400940	65.800079	144.442902	439.205719	663.820129	200.883423	431.622925	605.299805	232.453140	439.579498	600.296082	181.455536	412.202637	460.610504	227.787308	369.240997	341.399200	299.694733	361.483765	276.972046	311.764984	350.616547	288.881714	263.334412	336.478973	96.634598	309.034302	386.696655	76.819801	326.814423	285.207184	64.357117	164.752914	401.890900	92.057205	250.361206	817.329956	103.306534	239.718140	712.870117	431.503906	217.757813	525.554504	421.032410	222.893829	690.966472	795.538470	204.498683	542.172092	788.788150	192.969576	468.878571	440.821457	225.340569	369.184937	94.345901	279.697754	764.455414	451.085846	221.879189	856.250793	98.915104	262.675247	
3	0.010000	609.878662	1224.411987	305.419037	607.558472	1033.650757	300.194733	623.567627	1226.689087	171.804306	623.567810	1104.974243	99.681587	702.104187	1156.686035	325.226959	516.772705	850.233093	129.665237	720.197754	859.459290	145.383865	606.896545	882.920044	300.290375	792.156128	662.405701	195.934448	804.243774	611.622437	237.780304	794.593506	596.528625	188.077240	816.054993	470.663269	225.952393	858.346802	359.051788	294.560730	859.388306	294.636810	311.852234	877.208801	302.135590	265.131073	895.172668	94.520264	285.626831	834.847839	74.336304	313.339111	920.386902	65.801849	144.435394	439.215973	663.839294	200.850769	431.388855	605.448059	232.276443	439.580109	600.309509	181.393478	412.200043	460.604889	227.707840	369.240601	341.398926	299.646820	361.488495	276.990417	311.724518	350.608673	288.879761	263.265442	336.474060	96.629944	309.018036	386.693207	76.822517	326.812134	285.202911	64.360374	164.743591	401.888855	92.047058	250.351639	817.319153	103.449982	239.516281	712.886353	431.507904	217.711090	525.258484	420.665161	223.095688	691.002583	795.547507	204.439400	542.200302	788.798686	192.941467	468.729263	440.635025	225.401764	369.181458	94.338501	279.684837	764.470673	451.085587	221.831741	856.245911	98.985123	262.571556	
4	0.015000	609.932373	1224.413208	305.462769	607.598633	1033.642456	300.272827	623.661560	1226.748535	171.826523	623.634033	1105.073730	99.650154	702.157593	1156.700806	325.243103	516.773987	850.284912	129.658142	720.210205	859.492920	145.349030	606.921509	882.895325	300.301422	792.182617	662.412354	195.887024	804.265381	611.631348	237.742142	794.622742	596.540283	188.033890	816.052856	470.663025	225.910477	858.340271	359.059631	294.484253	859.391235	294.625488	311.826141	877.231934	302.188843	265.085571	895.171143	94.520439	285.618286	834.852112	74.333633	313.341644	920.395325	65.802177	144.438324	439.217468	663.846069	200.824448	431.620697	605.303650	232.329788	439.571747	600.325195	181.342865	412.190613	460.590851	227.627716	369.241882	341.402740	299.582825	361.927948	276.965485	311.675598	350.605103	288.871094	263.221710	336.477844	96.637924	309.011322	386.695160	76.827545	326.797668	285.205872	64.351334	164.750107	401.892487	92.054939	250.332062	817.314514	103.443939	239.522110	712.896484	431.501709	217.690353	525.252136	420.680542	222.986633	691.019070	795.555369	204.386095	542.209201	788.819880	192.908498	468.721375	440.635696	225.307175	369.185165	94.346432	279.671692	764.474670	451.082367	221.800415	856.242828	98.982189	262.570198	
5	0.020000	609.994202	1224.418945	305.503418	607.648926	1033.646606	300.328094	623.721497	1226.792236	171.854904	623.690552	1105.186157	99.581070	702.244751	1156.743042	325.259674	516.790588	850.324951	129.662064	720.224976	859.513672	145.307526	606.966431	882.854675	300.289368	792.224976	662.419067	195.839386	804.273438	611.622559	237.689423	794.659546	596.545227	187.990250	816.061523	470.642487	225.870193	858.319275	359.040649	294.441589	859.402222	294.628845	311.786011	877.056458	302.001495	265.004761	895.176697	94.516541	285.622559	834.861938	74.332497	313.349976	920.397644	65.805939	144.439713	439.220459	663.864075	200.770294	431.594513	605.320801	232.252365	439.579742	600.345398	181.281693	412.183472	460.588623	227.543503	369.236389	341.399780	299.513062	361.512909	276.975189	311.627869	350.614532	288.866364	263.172943	336.481506	96.638412	309.005920	386.702850	76.830673	326.791229	285.209015	64.357178	164.738724	401.907715	92.039070	250.332840	817.329285	103.439499	239.514893	712.911072	431.496765	217.642410	525.249817	420.672394	222.908508	691.045309	795.554085	204.322137	542.236338	788.832684	192.877735	468.716644	440.630508	225.226006	369.194611	94.338741	279.669380	764.486298	451.069626	221.756302	856.252991	98.978020	262.568726	
6	0.025000	610.054565	1224.426392	305.538300	607.687317	1033.631714	300.387054	623.791199	1226.846436	171.881516	623.765564	1105.285156	99.542740	702.334717	1156.774658	325.308716	516.813538	850.367065	129.672882	720.237976	859.557007	145.264740	606.978699	882.819397	300.285767	792.259155	662.410156	195.791428	804.284302	611.628601	237.656265	794.683899	596.554138	187.953888	816.071289	470.642365	225.833450	858.364075	359.013489	294.446442	859.411682	294.637970	311.768982	877.218750	302.139465	265.040344	895.172913	94.516853	285.621216	834.852539	74.325096	313.339752	920.402771	65.794991	144.435776	439.240295	663.886353	200.730652	431.595245	605.329346	232.196487	439.165985	600.501648	181.121155	412.170868	460.583954	227.467667	369.244293	341.415466	299.466339	361.809631	276.815216	311.609619	350.606995	288.864655	263.116089	336.481659	96.641045	308.988922	386.701843	76.849579	326.799011	285.210480	64.357864	164.733231	401.911072	92.034485	250.333466	817.338318	103.436058	239.512756	712.922424	431.497864	217.608444	525.244080	420.661102	222.834641	691.079873	795.573055	204.257258	542.277187	788.850716	192.851989	468.707474	440.622528	225.151154	369.196365	94.337765	279.661194	764.496857	451.070114	221.720947	856.255615	98.976456	262.566986	
7	0.030000	610.108582	1224.435913	305.579681	607.738586	1033.634399	300.433960	623.862244	1226.896606	171.912033	623.827087	1105.382080	99.497932	702.419250	1156.813110	325.337433	516.844360	850.421692	129.683792	720.248108	859.608643	145.241287	607.010620	882.796631	300.283386	792.279480	662.428650	195.748642	804.289429	611.624390	237.623032	794.703247	596.558350	187.906723	816.078125	470.637634	225.795868	858.340759	359.048462	294.377106	859.422546	294.638184	311.737183	877.064087	301.973999	264.968079	895.173584	94.514252	285.624664	834.859558	74.322983	313.339874	920.414124	65.804070	144.440369	439.241577	663.906616	200.684784	431.504791	605.455139	232.033066	439.174927	600.508301	181.061310	412.161194	460.584076	227.372910	369.246735	341.406586	299.405365	361.787323	276.832916	311.558624	350.620758	288.850769	263.061737	336.490662	96.651688	308.986084	386.713684	76.846970	326.795929	285.213898	64.356735	164.729324	401.908203	92.030067	250.334961	817.334290	103.442116	239.515381	712.937744	431.508026	217.584778	525.248230	420.652191	222.765717	691.106172	795.604138	204.207108	542.316957	788.883912	192.826848	468.704712	440.618134	225.069313	369.199432	94.340878	279.660522	764.507935	451.072830	221.690323	856.253937	98.978184	262.570023	
